<svg version="1.1" id="Layer_1" xmlns="http://www.w3.org/2000/svg" xmlns:xlink="http://www.w3.org/1999/xlink" x="0px" y="0px"
	 width="100%" viewBox="0 0 630 818" enable-background="new 0 0 630 818" xml:space="preserve">
<path fill="#6CBF4B" opacity="1.000000" stroke="none" 
	d="
M392.000000,819.000000 
	C261.685791,819.000000 131.371582,819.000000 1.028689,819.000000 
	C1.028689,546.392456 1.028689,273.784943 1.028689,1.088708 
	C210.910004,1.088708 420.820038,1.088708 630.865051,1.088708 
	C630.865051,273.666626 630.865051,546.333313 630.865051,819.000000 
	C556.900818,819.000000 482.911652,819.000000 408.856628,818.999512 
	C409.964386,817.740051 410.965851,816.238831 412.340088,815.261963 
	C420.234924,809.649841 423.750519,800.185974 421.153229,791.109009 
	C418.509247,781.868896 410.533783,775.472168 401.112305,775.035339 
	C391.616608,774.595032 382.938904,780.209961 379.536804,788.996033 
	C376.040527,798.025208 378.735321,808.094849 386.276550,814.239014 
	C388.200348,815.806396 390.093018,817.411987 392.000000,819.000000 
M318.117401,563.357727 
	C338.096527,568.700806 358.408081,570.661011 379.010162,568.913635 
	C400.929077,567.054565 420.558807,559.438660 434.673096,542.109436 
	C445.039612,529.381592 454.322266,515.627930 462.868011,501.588928 
	C482.887360,468.700836 504.963715,437.573669 533.817505,411.699493 
	C535.230103,410.432770 536.318848,408.078644 536.388672,406.187653 
	C536.547607,401.881317 536.201416,397.520599 535.671143,393.230072 
	C530.195984,348.928284 509.284607,313.305389 474.201782,286.132690 
	C444.034698,262.767426 409.503052,251.303131 371.385101,249.572678 
	C336.957855,248.009781 308.839569,259.209167 289.162018,288.207489 
	C279.723419,302.116913 270.987549,316.520844 262.331360,330.939758 
	C244.774490,360.184906 224.139420,386.705109 196.774033,407.559845 
	C195.173126,408.779877 194.113617,411.773254 194.153961,413.915924 
	C194.479965,431.228912 197.659943,448.090698 204.265793,464.091309 
	C225.577744,515.712891 264.297882,547.636902 318.117401,563.357727 
M136.811646,419.117645 
	C142.011597,405.866028 136.408401,392.634033 123.893387,388.611023 
	C111.712799,384.695496 98.970024,391.647064 95.709312,403.986267 
	C92.983299,414.302094 98.335617,425.382019 108.108139,429.653259 
	C118.658470,434.264465 129.814331,430.384277 136.811646,419.117645 
M599.684875,49.145836 
	C603.878662,45.125340 604.379272,41.876202 599.551208,38.501797 
	C591.298828,32.734032 582.373108,27.920630 573.645996,22.851419 
	C572.434143,22.147490 570.748108,22.083418 569.272705,22.042639 
	C564.689270,21.915953 563.079956,24.147097 565.638550,27.819170 
	C568.063782,31.299707 571.159241,34.483280 574.494019,37.122742 
	C580.518005,41.890717 580.742554,42.160995 576.189087,48.503429 
	C573.838562,51.777435 571.566528,55.107761 569.259033,58.412651 
	C569.658508,58.930500 570.058044,59.448353 570.457520,59.966206 
	C581.017029,59.620075 590.119812,54.801182 599.684875,49.145836 
z"/>
<path fill="#159212" opacity="1.000000" stroke="none" 
	d="
M392.466858,819.000000 
	C390.093018,817.411987 388.200348,815.806396 386.276550,814.239014 
	C378.735321,808.094849 376.040527,798.025208 379.536804,788.996033 
	C382.938904,780.209961 391.616608,774.595032 401.112305,775.035339 
	C410.533783,775.472168 418.509247,781.868896 421.153229,791.109009 
	C423.750519,800.185974 420.234924,809.649841 412.340088,815.261963 
	C410.965851,816.238831 409.964386,817.740051 408.395355,818.999512 
	C402.977905,819.000000 397.955811,819.000000 392.466858,819.000000 
z"/>
<path fill="#159212" opacity="1.000000" stroke="none" 
	d="
M317.723450,563.248047 
	C264.297882,547.636902 225.577744,515.712891 204.265793,464.091309 
	C197.659943,448.090698 194.479965,431.228912 194.153961,413.915924 
	C194.113617,411.773254 195.173126,408.779877 196.774033,407.559845 
	C224.139420,386.705109 244.774490,360.184906 262.331360,330.939758 
	C270.987549,316.520844 279.723419,302.116913 289.162018,288.207489 
	C308.839569,259.209167 336.957855,248.009781 371.385101,249.572678 
	C409.503052,251.303131 444.034698,262.767426 474.201782,286.132690 
	C509.284607,313.305389 530.195984,348.928284 535.671143,393.230072 
	C536.201416,397.520599 536.547607,401.881317 536.388672,406.187653 
	C536.318848,408.078644 535.230103,410.432770 533.817505,411.699493 
	C504.963715,437.573669 482.887360,468.700836 462.868011,501.588928 
	C454.322266,515.627930 445.039612,529.381592 434.673096,542.109436 
	C420.558807,559.438660 400.929077,567.054565 379.010162,568.913635 
	C358.408081,570.661011 338.096527,568.700806 317.723450,563.248047 
M297.578888,390.776978 
	C297.001648,390.594788 296.424377,390.412598 295.952850,389.358398 
	C296.120087,388.496674 296.287323,387.634949 296.652954,386.289581 
	C296.421265,385.395020 296.189575,384.500488 295.641754,383.203827 
	C294.924316,383.014771 293.914124,382.425476 293.536865,382.701447 
	C291.055511,384.516479 288.632141,386.430023 286.336426,388.475891 
	C280.326782,393.831665 278.986206,401.544525 283.118927,409.607697 
	C283.686646,411.388367 284.254364,413.169006 284.957336,415.645599 
	C285.615387,416.941284 286.273468,418.237000 287.461304,420.046814 
	C290.365112,424.013062 293.711792,425.425995 298.483246,421.512939 
	C300.339355,417.748505 302.178558,413.975616 304.058258,410.222961 
	C305.106567,408.130096 306.222076,406.070923 306.769379,403.862732 
	C306.936646,403.596924 307.103912,403.331116 307.271210,403.065308 
	C307.451416,403.252075 307.631592,403.438873 307.811768,403.625671 
	C307.609344,403.767975 307.406952,403.910278 306.688599,404.577698 
	C304.814758,405.987854 302.620972,407.129333 301.151703,408.879211 
	C299.483093,410.866577 298.462555,413.398132 296.293732,415.590912 
	C293.821075,415.342926 291.348419,415.094910 289.478577,414.097229 
	C291.236420,412.024872 292.994263,409.952515 295.175476,407.340698 
	C299.299835,404.192596 299.831970,399.983856 298.913544,394.542694 
	C298.645721,393.384094 298.377899,392.225494 297.578888,390.776978 
M268.102722,428.919006 
	C278.123901,440.399872 292.970917,445.323364 304.268585,440.659088 
	C288.930847,442.358398 277.323486,436.745239 268.776855,423.531128 
	C262.121674,408.060303 263.805450,394.574371 275.022156,384.099426 
	C279.395691,380.015045 285.635925,377.929565 291.952179,374.843018 
	C299.499878,375.476501 307.047546,376.109955 314.051727,376.697815 
	C307.620483,371.979553 299.653198,370.609253 290.214417,372.014282 
	C263.476959,376.843323 251.432800,407.134247 268.102722,428.919006 
M399.778778,418.788147 
	C402.271942,418.790710 404.805084,419.057556 407.242065,418.688721 
	C408.537537,418.492645 409.666321,417.195068 410.870331,416.394684 
	C409.779114,415.648132 408.771851,414.691498 407.573608,414.212677 
	C406.317535,413.710724 404.878235,413.667206 402.486816,413.238129 
	C405.857452,409.188446 408.533508,405.973236 411.767059,402.088226 
	C413.930878,406.887024 415.718719,410.765198 417.431152,414.676392 
	C418.889496,418.007263 419.771362,421.019714 414.168610,420.686829 
	C413.393311,420.640778 412.540588,421.897522 411.723724,422.551147 
	C412.496582,423.432220 413.470856,425.176697 414.008911,425.051178 
	C417.024231,424.347748 421.435638,424.059662 422.605011,422.033661 
	C426.453003,415.366821 429.113251,408.014435 432.412354,400.509918 
	C430.649231,400.107300 429.167908,399.451416 428.924835,399.762634 
	C426.499207,402.868134 424.277740,406.133087 421.583618,409.939392 
	C420.401215,407.554993 419.541809,405.462891 418.363464,403.569244 
	C417.551239,402.264038 416.369934,400.323303 415.228790,400.232361 
	C409.119568,399.745605 402.971008,399.671295 396.836487,399.683929 
	C396.045746,399.685577 395.257812,401.019012 394.468567,401.735504 
	C395.322723,402.522583 396.056488,403.687775 397.059570,404.007172 
	C398.525848,404.474060 400.185394,404.334045 403.062866,404.550507 
	C400.330292,407.769318 398.193909,409.997131 396.423462,412.485321 
	C395.442444,413.864014 395.073273,415.678070 394.428345,417.295898 
	C395.915649,417.793976 397.402924,418.292053 399.778778,418.788147 
M351.398956,413.092529 
	C350.979492,416.718414 352.955139,418.400665 356.246338,418.594025 
	C359.896454,418.808441 363.580963,418.891815 367.217529,418.608795 
	C368.325714,418.522522 369.324982,417.036011 370.374146,416.190826 
	C369.309906,415.417023 368.330933,414.187866 367.162750,413.969147 
	C365.064911,413.576355 362.809875,414.029449 360.708282,413.647003 
	C359.703888,413.464203 358.900421,412.177338 358.005951,411.390564 
	C358.885437,410.576782 359.646790,409.322601 360.670868,409.047943 
	C362.401825,408.583649 364.381287,409.021179 366.093506,408.521606 
	C367.027496,408.249084 367.933411,406.917145 368.226654,405.885315 
	C368.343872,405.472809 366.857422,404.169464 365.960907,403.996185 
	C364.187164,403.653320 362.275726,404.023376 360.501862,403.680847 
	C359.597107,403.506073 358.867065,402.426544 358.058075,401.756012 
	C358.828766,400.866547 359.459290,399.453491 360.400635,399.201416 
	C362.122925,398.740173 364.113007,399.275024 365.832550,398.808716 
	C367.280731,398.416016 368.503540,397.192200 369.826111,396.336334 
	C368.563660,395.571655 367.350220,394.267029 366.029236,394.147125 
	C362.559875,393.832153 359.039429,394.137207 355.547302,393.997314 
	C352.490631,393.874908 351.371826,395.317932 351.405548,398.191864 
	C351.460297,402.854492 351.406738,407.518402 351.398956,413.092529 
M436.897247,418.681641 
	C439.177032,418.660004 441.491364,418.374451 443.730042,418.667145 
	C449.948334,419.480225 454.417694,416.263702 454.936859,410.341095 
	C455.520111,403.687256 451.674530,399.230103 445.040405,399.606506 
	C441.901520,399.784576 440.391266,399.266998 440.000793,395.957001 
	C439.874695,394.888000 438.409729,393.976898 437.557220,392.993500 
	C436.613007,394.086761 434.886932,395.155853 434.852264,396.277252 
	C434.637573,403.223053 434.777557,410.181030 434.899078,417.133209 
	C434.907227,417.600250 435.730133,418.053070 436.897247,418.681641 
M382.542206,407.129608 
	C381.552948,407.230530 380.559387,407.300537 379.575195,407.437927 
	C375.998901,407.937225 372.821625,409.170380 373.257721,413.513489 
	C373.703064,417.948761 377.066864,418.899078 380.904938,418.761169 
	C382.700836,418.696655 384.553070,418.209381 386.275726,418.509949 
	C389.881470,419.139099 391.231476,417.753815 391.002899,414.268219 
	C390.894653,412.617523 391.032806,410.952209 390.990021,409.295319 
	C390.781494,401.223633 383.802948,396.915314 376.464050,400.410675 
	C375.596558,400.823883 374.718323,401.909943 374.537109,402.821655 
	C374.418427,403.418884 375.451904,404.750427 376.138733,404.884308 
	C377.176819,405.086639 378.372955,404.301910 379.483124,404.352081 
	C381.155975,404.427734 384.143951,402.997131 382.542206,407.129608 
M317.172607,413.369781 
	C317.567139,415.687775 317.961639,418.005798 318.446228,420.852844 
	C323.014374,417.135773 327.065216,414.269379 330.594116,410.862396 
	C335.303436,406.315765 335.584778,401.744446 331.939819,398.333679 
	C331.426544,400.489441 330.911011,402.654663 330.395508,404.819855 
	C329.323456,403.683197 329.599152,402.715698 329.440277,401.825775 
	C329.084412,399.832214 328.512360,397.877289 328.028381,395.906616 
	C326.040222,396.868896 323.057068,397.322449 322.255035,398.891113 
	C320.061768,403.180725 318.787354,407.940094 317.172607,413.369781 
M486.956909,402.948059 
	C484.505341,400.556213 473.262878,398.387787 470.341003,399.970093 
	C469.522766,400.413208 468.775208,401.761627 468.732056,402.727661 
	C468.539734,407.031799 468.412811,411.362885 468.732971,415.649078 
	C468.814240,416.736908 470.625458,417.695496 471.641785,418.713440 
	C472.617645,417.651428 474.135620,416.726776 474.447266,415.496521 
	C474.964813,413.453674 474.206238,411.024902 474.928619,409.115662 
	C475.549316,407.475250 477.488708,406.333832 478.844940,404.971741 
	C480.018524,406.324432 481.799164,407.513489 482.218567,409.069458 
	C482.799408,411.224304 482.059998,413.711151 482.481689,415.943268 
	C482.681213,416.999359 484.235931,418.468079 485.227966,418.509125 
	C486.136841,418.546722 487.910553,416.928040 487.925537,416.016541 
	C487.993103,411.907196 487.570923,407.789825 486.956909,402.948059 
M464.046631,405.756958 
	C464.046722,405.259918 464.050354,404.762817 464.046356,404.265808 
	C464.028534,402.055267 464.079163,399.359009 460.976288,399.933044 
	C459.885193,400.134918 458.651520,402.702240 458.511017,404.280975 
	C458.174835,408.058502 458.267975,411.906006 458.593719,415.690338 
	C458.685059,416.751465 460.186127,417.691284 461.040527,418.686707 
	C462.035736,417.667023 463.727875,416.746582 463.889984,415.608276 
	C464.306335,412.684387 464.043823,409.663879 464.046631,405.756958 
M464.428558,394.991516 
	C463.454224,393.735748 462.665619,392.194092 461.406830,391.376068 
	C460.953522,391.081451 459.015106,392.305328 458.424683,393.253571 
	C458.020081,393.903351 458.746490,396.169189 459.013702,396.177246 
	C460.730499,396.229126 462.460083,395.856903 464.428558,394.991516 
z"/>
<path fill="#159212" opacity="1.000000" stroke="none" 
	d="
M136.637177,419.454346 
	C129.814331,430.384277 118.658470,434.264465 108.108139,429.653259 
	C98.335617,425.382019 92.983299,414.302094 95.709312,403.986267 
	C98.970024,391.647064 111.712799,384.695496 123.893387,388.611023 
	C136.408401,392.634033 142.011597,405.866028 136.637177,419.454346 
z"/>
<path fill="#42A82F" opacity="1.000000" stroke="none" 
	d="
M599.387085,49.359283 
	C590.119812,54.801182 581.017029,59.620075 570.457520,59.966206 
	C570.058044,59.448353 569.658508,58.930500 569.259033,58.412651 
	C571.566528,55.107761 573.838562,51.777435 576.189087,48.503429 
	C580.742554,42.160995 580.518005,41.890717 574.494019,37.122742 
	C571.159241,34.483280 568.063782,31.299707 565.638550,27.819170 
	C563.079956,24.147097 564.689270,21.915953 569.272705,22.042639 
	C570.748108,22.083418 572.434143,22.147490 573.645996,22.851419 
	C582.373108,27.920630 591.298828,32.734032 599.551208,38.501797 
	C604.379272,41.876202 603.878662,45.125340 599.387085,49.359283 
z"/>
<path fill="#56B04E" opacity="1.000000" stroke="none" 
	d="
M399.334503,418.789124 
	C397.402924,418.292053 395.915649,417.793976 394.428345,417.295898 
	C395.073273,415.678070 395.442444,413.864014 396.423462,412.485321 
	C398.193909,409.997131 400.330292,407.769318 403.062866,404.550507 
	C400.185394,404.334045 398.525848,404.474060 397.059570,404.007172 
	C396.056488,403.687775 395.322723,402.522583 394.468567,401.735504 
	C395.257812,401.019012 396.045746,399.685577 396.836487,399.683929 
	C402.971008,399.671295 409.119568,399.745605 415.228790,400.232361 
	C416.369934,400.323303 417.551239,402.264038 418.363464,403.569244 
	C419.541809,405.462891 420.401215,407.554993 421.583618,409.939392 
	C424.277740,406.133087 426.499207,402.868134 428.924835,399.762634 
	C429.167908,399.451416 430.649231,400.107300 432.412354,400.509918 
	C429.113251,408.014435 426.453003,415.366821 422.605011,422.033661 
	C421.435638,424.059662 417.024231,424.347748 414.008911,425.051178 
	C413.470856,425.176697 412.496582,423.432220 411.723694,422.551147 
	C412.540588,421.897522 413.393311,420.640778 414.168610,420.686829 
	C419.771362,421.019714 418.889496,418.007263 417.431152,414.676392 
	C415.718719,410.765198 413.930878,406.887024 411.767059,402.088226 
	C408.533508,405.973236 405.857452,409.188446 402.486816,413.238129 
	C404.878235,413.667206 406.317535,413.710724 407.573608,414.212677 
	C408.771851,414.691498 409.779114,415.648132 410.870361,416.394714 
	C409.666321,417.195068 408.537537,418.492645 407.242065,418.688721 
	C404.805084,419.057556 402.271942,418.790710 399.334503,418.789124 
z"/>
<path fill="#56B04E" opacity="1.000000" stroke="none" 
	d="
M351.398926,412.637146 
	C351.406738,407.518402 351.460297,402.854492 351.405548,398.191864 
	C351.371826,395.317932 352.490631,393.874908 355.547302,393.997314 
	C359.039429,394.137207 362.559875,393.832153 366.029236,394.147125 
	C367.350220,394.267029 368.563660,395.571655 369.826111,396.336334 
	C368.503540,397.192200 367.280731,398.416016 365.832550,398.808716 
	C364.113007,399.275024 362.122925,398.740173 360.400635,399.201416 
	C359.459290,399.453491 358.828766,400.866547 358.058044,401.755981 
	C358.867065,402.426544 359.597107,403.506073 360.501862,403.680847 
	C362.275726,404.023376 364.187164,403.653320 365.960907,403.996185 
	C366.857422,404.169464 368.343872,405.472809 368.226654,405.885315 
	C367.933411,406.917145 367.027496,408.249084 366.093506,408.521606 
	C364.381287,409.021179 362.401825,408.583649 360.670868,409.047943 
	C359.646790,409.322601 358.885437,410.576782 358.005951,411.390564 
	C358.900421,412.177338 359.703888,413.464203 360.708282,413.647003 
	C362.809875,414.029449 365.064911,413.576355 367.162750,413.969147 
	C368.330933,414.187866 369.309906,415.417023 370.374146,416.190796 
	C369.324982,417.036011 368.325714,418.522522 367.217529,418.608795 
	C363.580963,418.891815 359.896454,418.808441 356.246338,418.594025 
	C352.955139,418.400665 350.979492,416.718414 351.398926,412.637146 
z"/>
<path fill="#56B04E" opacity="1.000000" stroke="none" 
	d="
M436.535675,418.597046 
	C435.730133,418.053070 434.907227,417.600250 434.899078,417.133209 
	C434.777557,410.181030 434.637573,403.223053 434.852264,396.277252 
	C434.886932,395.155853 436.613007,394.086761 437.557251,392.993530 
	C438.409729,393.976898 439.874695,394.888000 440.000793,395.957001 
	C440.391266,399.266998 441.901520,399.784576 445.040405,399.606506 
	C451.674530,399.230103 455.520111,403.687256 454.936859,410.341095 
	C454.417694,416.263702 449.948334,419.480225 443.730042,418.667145 
	C441.491364,418.374451 439.177032,418.660004 436.535675,418.597046 
M447.677460,413.036591 
	C450.233002,410.606567 450.310242,407.816040 447.717804,405.731781 
	C446.550262,404.793091 443.471619,404.564758 442.533661,405.416565 
	C441.274628,406.559875 440.468658,409.243317 440.863770,410.940704 
	C441.587952,414.051453 444.080048,414.961090 447.677460,413.036591 
z"/>
<path fill="#5DC652" opacity="1.000000" stroke="none" 
	d="
M291.025909,374.933624 
	C285.635925,377.929565 279.395691,380.015045 275.022156,384.099426 
	C263.805450,394.574371 262.121674,408.060303 268.830414,424.246277 
	C268.528961,426.087158 268.173950,427.212921 267.818939,428.338654 
	C251.432800,407.134247 263.476959,376.843323 290.614777,372.388489 
	C291.018707,373.486359 291.022308,374.209991 291.025909,374.933624 
z"/>
<path fill="#56B04E" opacity="1.000000" stroke="none" 
	d="
M382.866577,407.036682 
	C384.143951,402.997131 381.155975,404.427734 379.483124,404.352081 
	C378.372955,404.301910 377.176819,405.086639 376.138733,404.884308 
	C375.451904,404.750427 374.418427,403.418884 374.537109,402.821655 
	C374.718323,401.909943 375.596558,400.823883 376.464050,400.410675 
	C383.802948,396.915314 390.781494,401.223633 390.990021,409.295319 
	C391.032806,410.952209 390.894653,412.617523 391.002899,414.268219 
	C391.231476,417.753815 389.881470,419.139099 386.275726,418.509949 
	C384.553070,418.209381 382.700836,418.696655 380.904938,418.761169 
	C377.066864,418.899078 373.703064,417.948761 373.257721,413.513489 
	C372.821625,409.170380 375.998901,407.937225 379.575195,407.437927 
	C380.559387,407.300537 381.552948,407.230530 382.866577,407.036682 
z"/>
<path fill="#5DC652" opacity="1.000000" stroke="none" 
	d="
M317.160828,412.941589 
	C318.787354,407.940094 320.061768,403.180725 322.255035,398.891113 
	C323.057068,397.322449 326.040222,396.868896 328.028381,395.906616 
	C328.512360,397.877289 329.084412,399.832214 329.440277,401.825775 
	C329.599152,402.715698 329.323456,403.683197 330.395508,404.819855 
	C330.911011,402.654663 331.426544,400.489441 331.939819,398.333679 
	C335.584778,401.744446 335.303436,406.315765 330.594116,410.862396 
	C327.065216,414.269379 323.014374,417.135773 318.446228,420.852844 
	C317.961639,418.005798 317.567139,415.687775 317.160828,412.941589 
M328.566711,407.474243 
	C328.566711,407.474243 328.366364,407.338013 328.366364,407.338013 
	C328.366364,407.338013 328.378479,407.586945 328.566711,407.474243 
z"/>
<path fill="#56B04E" opacity="1.000000" stroke="none" 
	d="
M487.141052,403.311707 
	C487.570923,407.789825 487.993103,411.907196 487.925537,416.016541 
	C487.910553,416.928040 486.136841,418.546722 485.227966,418.509125 
	C484.235931,418.468079 482.681213,416.999359 482.481689,415.943268 
	C482.059998,413.711151 482.799408,411.224304 482.218567,409.069458 
	C481.799164,407.513489 480.018524,406.324432 478.844940,404.971741 
	C477.488708,406.333832 475.549316,407.475250 474.928619,409.115662 
	C474.206238,411.024902 474.964813,413.453674 474.447266,415.496521 
	C474.135620,416.726776 472.617645,417.651428 471.641785,418.713440 
	C470.625458,417.695496 468.814240,416.736908 468.732971,415.649078 
	C468.412811,411.362885 468.539734,407.031799 468.732056,402.727661 
	C468.775208,401.761627 469.522766,400.413208 470.341003,399.970093 
	C473.262878,398.387787 484.505341,400.556213 487.141052,403.311707 
z"/>
<path fill="#26D2B7" opacity="1.000000" stroke="none" 
	d="
M296.454590,386.773224 
	C296.287323,387.634949 296.120087,388.496674 295.726532,389.956177 
	C295.125122,391.088043 294.750061,391.622131 294.229492,391.800598 
	C292.167877,390.832123 290.272736,389.897491 288.325073,389.770844 
	C287.585754,389.722748 286.725525,391.534363 285.920410,392.498322 
	C287.690491,393.384094 289.454071,394.283325 291.237427,395.141571 
	C291.516052,395.275696 291.884460,395.223175 292.063812,395.554810 
	C288.826080,400.252655 285.735931,404.652649 282.645752,409.052612 
	C278.986206,401.544525 280.326782,393.831665 286.336426,388.475891 
	C288.632141,386.430023 291.055511,384.516479 293.536865,382.701447 
	C293.914124,382.425476 294.924316,383.014771 295.753632,383.707336 
	C296.061859,385.064941 296.258209,385.919098 296.454590,386.773224 
z"/>
<path fill="#6CBF4B" opacity="1.000000" stroke="none" 
	d="
M267.960815,428.628845 
	C268.173950,427.212921 268.528961,426.087158 268.922211,424.615265 
	C277.323486,436.745239 288.930847,442.358398 304.268585,440.659088 
	C292.970917,445.323364 278.123901,440.399872 267.960815,428.628845 
z"/>
<path fill="#56B04E" opacity="1.000000" stroke="none" 
	d="
M464.049652,406.219482 
	C464.043823,409.663879 464.306335,412.684387 463.889984,415.608276 
	C463.727875,416.746582 462.035736,417.667023 461.040527,418.686707 
	C460.186127,417.691284 458.685059,416.751465 458.593719,415.690338 
	C458.267975,411.906006 458.174835,408.058502 458.511017,404.280975 
	C458.651520,402.702240 459.885193,400.134918 460.976288,399.933044 
	C464.079163,399.359009 464.028534,402.055267 464.046356,404.265808 
	C464.050354,404.762817 464.046722,405.259918 464.049652,406.219482 
z"/>
<path fill="#26D2B7" opacity="1.000000" stroke="none" 
	d="
M307.307343,403.996552 
	C306.222076,406.070923 305.106567,408.130096 304.058258,410.222961 
	C302.178558,413.975616 300.339355,417.748505 297.994751,421.451935 
	C297.390961,419.491669 297.275635,417.592377 297.160309,415.693115 
	C298.462555,413.398132 299.483093,410.866577 301.151703,408.879211 
	C302.620972,407.129333 304.814758,405.987854 306.970367,404.297638 
	C307.252136,404.017578 307.307343,403.996552 307.307343,403.996552 
z"/>
<path fill="#129880" opacity="1.000000" stroke="none" 
	d="
M296.727020,415.642029 
	C297.275635,417.592377 297.390961,419.491669 297.714050,421.626068 
	C293.711792,425.425995 290.365112,424.013062 287.181580,419.486908 
	C287.559814,417.566986 288.217773,416.206940 288.875763,414.846924 
	C291.348419,415.094910 293.821075,415.342926 296.727020,415.642029 
z"/>
<path fill="#6CBF4B" opacity="1.000000" stroke="none" 
	d="
M291.489044,374.888306 
	C291.022308,374.209991 291.018707,373.486359 291.013733,372.400879 
	C299.653198,370.609253 307.620483,371.979553 314.051727,376.697815 
	C307.047546,376.109955 299.499878,375.476501 291.489044,374.888306 
z"/>
<path fill="#10E1C8" opacity="1.000000" stroke="none" 
	d="
M298.732666,395.293335 
	C299.831970,399.983856 299.299835,404.192596 294.576843,407.620178 
	C290.212799,408.214691 289.015961,405.942108 288.921661,402.515686 
	C289.567810,401.828888 290.053284,401.347137 290.787628,400.728455 
	C291.344971,400.373657 291.653442,400.155762 291.830383,399.931274 
	C291.698883,399.924652 291.711792,399.661591 292.097595,399.684906 
	C294.566467,398.236603 296.649567,396.764984 298.732666,395.293335 
z"/>
<path fill="#26D2B7" opacity="1.000000" stroke="none" 
	d="
M288.760986,402.720734 
	C289.015961,405.942108 290.212799,408.214691 294.365173,407.889893 
	C292.994263,409.952515 291.236420,412.024872 289.177185,414.472076 
	C288.217773,416.206940 287.559814,417.566986 286.916687,419.229858 
	C286.273468,418.237000 285.615387,416.941284 284.986755,414.896912 
	C286.264465,410.339020 287.512695,406.529877 288.760986,402.720734 
z"/>
<path fill="#42A82F" opacity="1.000000" stroke="none" 
	d="
M288.921631,402.515686 
	C287.512695,406.529877 286.264465,410.339020 284.919128,414.548950 
	C284.254364,413.169006 283.686646,411.388367 282.882324,409.330139 
	C285.735931,404.652649 288.826080,400.252655 292.064148,395.535461 
	C292.212006,395.218201 292.174896,395.205536 292.432739,395.047058 
	C292.964508,394.357880 293.238403,393.827148 293.451721,393.245514 
	C293.391174,393.194611 293.289734,393.316040 293.551239,393.212219 
	C293.971588,392.778198 294.130432,392.447968 294.300812,392.149292 
	C294.312347,392.180847 294.374969,392.156219 294.375000,392.156219 
	C294.750061,391.622131 295.125122,391.088043 295.673676,390.392181 
	C296.424377,390.412598 297.001648,390.594788 297.668823,391.213593 
	C295.743103,394.320679 293.727448,396.991119 291.711792,399.661591 
	C291.711792,399.661591 291.698883,399.924652 291.527008,399.954346 
	C291.083008,400.277863 290.810883,400.571625 290.538757,400.865387 
	C290.053284,401.347137 289.567810,401.828888 288.921631,402.515686 
z"/>
<path fill="#56B04E" opacity="1.000000" stroke="none" 
	d="
M464.307007,395.307739 
	C462.460083,395.856903 460.730499,396.229126 459.013702,396.177246 
	C458.746490,396.169189 458.020081,393.903351 458.424683,393.253571 
	C459.015106,392.305328 460.953522,391.081451 461.406830,391.376068 
	C462.665619,392.194092 463.454224,393.735748 464.307007,395.307739 
z"/>
<path fill="#26D2B7" opacity="1.000000" stroke="none" 
	d="
M292.097595,399.684906 
	C293.727448,396.991119 295.743103,394.320679 297.934448,391.358551 
	C298.377899,392.225494 298.645721,393.384094 298.823120,394.918030 
	C296.649567,396.764984 294.566467,398.236603 292.097595,399.684906 
z"/>
<path fill="#42A82F" opacity="1.000000" stroke="none" 
	d="
M296.553772,386.531403 
	C296.258209,385.919098 296.061859,385.064941 295.911682,383.908386 
	C296.189575,384.500488 296.421265,385.395020 296.553772,386.531403 
z"/>
<path fill="#26D2B7" opacity="1.000000" stroke="none" 
	d="
M307.228333,404.035095 
	C307.406952,403.910278 307.609344,403.767975 307.811768,403.625671 
	C307.631592,403.438873 307.451416,403.252075 307.271210,403.065308 
	C307.103912,403.331116 306.936646,403.596924 307.038361,403.929626 
	C307.307343,403.996552 307.252136,404.017578 307.228333,404.035095 
z"/>
<path fill="#159212" opacity="1.000000" stroke="none" 
	d="
M447.396332,413.229187 
	C444.080048,414.961090 441.587952,414.051453 440.863770,410.940704 
	C440.468658,409.243317 441.274628,406.559875 442.533661,405.416565 
	C443.471619,404.564758 446.550262,404.793091 447.717804,405.731781 
	C450.310242,407.816040 450.233002,410.606567 447.396332,413.229187 
z"/>
<path fill="#159212" opacity="1.000000" stroke="none" 
	d="
M328.472595,407.530579 
	C328.378479,407.586945 328.366364,407.338013 328.366364,407.338013 
	C328.366364,407.338013 328.566711,407.474243 328.472595,407.530579 
z"/>
<path fill="#10E1C8" opacity="1.000000" stroke="none" 
	d="
M292.211670,395.237579 
	C291.884460,395.223175 291.516052,395.275696 291.237427,395.141571 
	C289.454071,394.283325 287.690491,393.384094 285.920410,392.498322 
	C286.725525,391.534363 287.585754,389.722748 288.325073,389.770844 
	C290.272736,389.897491 292.167877,390.832123 294.229462,391.800598 
	C294.374969,392.156219 294.312347,392.180847 294.110870,392.329346 
	C293.702850,392.757233 293.496277,393.036621 293.289734,393.316040 
	C293.289734,393.316040 293.391174,393.194611 293.215088,393.432373 
	C292.750977,394.181946 292.462921,394.693756 292.174896,395.205536 
	C292.174896,395.205536 292.212006,395.218201 292.211670,395.237579 
z"/>
<path fill="#26D2B7" opacity="1.000000" stroke="none" 
	d="
M290.787628,400.728455 
	C290.810883,400.571625 291.083008,400.277863 291.658508,399.960968 
	C291.653442,400.155762 291.344971,400.373657 290.787628,400.728455 
z"/>
<path fill="#26D2B7" opacity="1.000000" stroke="none" 
	d="
M292.432739,395.047058 
	C292.462921,394.693756 292.750977,394.181946 293.275635,393.483276 
	C293.238403,393.827148 292.964508,394.357880 292.432739,395.047058 
z"/>
<path fill="#26D2B7" opacity="1.000000" stroke="none" 
	d="
M293.551239,393.212219 
	C293.496277,393.036621 293.702850,392.757233 294.099335,392.297791 
	C294.130432,392.447968 293.971588,392.778198 293.551239,393.212219 
z"/>
</svg>