<svg width="34" height="24" viewBox="0 0 34 24" fill="none" xmlns="http://www.w3.org/2000/svg">
<rect width="34" height="24" rx="12" fill="#F0E1F5"/>
<path d="M17 10.5C18.6569 10.5 20 9.15685 20 7.5C20 5.84315 18.6569 4.5 17 4.5C15.3431 4.5 14 5.84315 14 7.5C14 9.15685 15.3431 10.5 17 10.5Z" stroke="black" stroke-width="2"/>
<path d="M9 17.5C9 16.4391 9.42143 15.4217 10.1716 14.6716C10.9217 13.9214 11.9391 13.5 13 13.5H21C22.0609 13.5 23.0783 13.9214 23.8284 14.6716C24.5786 15.4217 25 16.4391 25 17.5C25 18.0304 24.7893 18.5391 24.4142 18.9142C24.0391 19.2893 23.5304 19.5 23 19.5H11C10.4696 19.5 9.96086 19.2893 9.58579 18.9142C9.21071 18.5391 9 18.0304 9 17.5Z" stroke="black" stroke-width="2" stroke-linejoin="round"/>
</svg>
