<svg width="246" height="200" viewBox="0 0 246 200" fill="none" xmlns="http://www.w3.org/2000/svg">
<rect y="0.753906" width="246" height="199" rx="20" fill="#B5E3D3"/>
<path d="M129.842 40.9891H143.487C144.861 41.0101 146.217 40.7327 147.414 40.1859C148.61 39.639 149.604 38.8427 150.291 37.8797L157.017 28.3651C157.268 28.0191 157.369 27.6154 157.305 27.2178C157.24 26.8201 157.013 26.4512 156.661 26.1694C156.308 25.8876 155.849 25.709 155.357 25.6618C154.864 25.6145 154.367 25.7014 153.942 25.9086L152.827 26.4372L145.14 15.4611C144.766 14.6429 144.038 13.962 143.091 13.5447C142.144 13.1273 141.042 13.0018 139.989 13.1913H109.701H110.162L110.854 13.3779L110.085 13.1913C107.428 12.7606 104.673 12.987 102.177 13.8411C99.6815 14.6952 97.5617 16.1373 96.0937 17.9797V18.3529L88.0603 29.4222C87.2102 30.6141 86.9797 32.0301 87.4193 33.3594C87.8589 34.6886 88.9328 35.8224 90.405 36.5116L102.474 42.1707C103.948 42.8584 105.698 43.0449 107.341 42.6892C108.985 42.3336 110.386 41.4649 111.238 40.274L119.156 29.0802C119.385 28.7572 119.715 28.4887 120.113 28.3021C120.512 28.1154 120.964 28.0171 121.424 28.0171C121.884 28.0171 122.336 28.1154 122.735 28.3021C123.133 28.4887 123.463 28.7572 123.692 29.0802L129.419 37.2579L128.65 37.631C128.224 37.8336 127.892 38.1453 127.709 38.517C127.525 38.8887 127.499 39.2992 127.636 39.684C127.772 40.0687 128.063 40.4058 128.463 40.6421C128.862 40.8784 129.347 41.0005 129.842 40.9891Z" fill="black"/>
<path d="M67.8036 64.2786L83.1786 85.4535V85.0492C84.0198 87.1145 85.6025 88.9303 87.7247 90.2649C89.847 91.5996 92.4126 92.3926 95.0942 92.5428H111.469C113.171 92.5428 114.804 91.9957 116.008 91.0219C117.211 90.0481 117.888 88.7274 117.888 87.3502V76.0942C117.888 74.7171 117.211 73.3963 116.008 72.4225C114.804 71.4487 113.171 70.9016 111.469 70.9016H95.3249C94.8768 70.8963 94.4379 70.7978 94.0504 70.6158C93.6629 70.4337 93.3397 70.1741 93.112 69.8618C92.8843 69.5496 92.7596 69.1953 92.75 68.8328C92.7404 68.4704 92.8461 68.1121 93.057 67.7922L98.8611 59.5524L99.8605 60.0188C100.288 60.2217 100.787 60.3035 101.279 60.2512C101.77 60.199 102.226 60.0157 102.575 59.7303C102.923 59.445 103.144 59.0738 103.202 58.6755C103.261 58.2773 103.153 57.8746 102.897 57.5313L96.0167 47.9855C95.3298 47.0226 94.3364 46.2262 93.1398 45.6794C91.9433 45.1325 90.5874 44.8551 89.2133 44.8761H75.4142C74.9263 44.8788 74.4528 45.0109 74.0666 45.2522C73.6804 45.4934 73.4027 45.8306 73.2762 46.2118C73.1496 46.5931 73.1812 46.9974 73.3661 47.3627C73.5509 47.728 73.8789 48.0342 74.2995 48.2342L75.222 48.6695L67.5345 59.6145C66.8959 60.294 66.5729 61.1335 66.6221 61.9861C66.6713 62.8387 67.0895 63.6502 67.8036 64.2786Z" fill="black"/>
<path d="M161.437 90.2724L176.812 68.5068C178.339 66.9004 179.281 64.9811 179.532 62.9649C179.784 60.9488 179.334 58.916 178.234 57.0954L177.811 56.7222L169.893 45.7772C169.041 44.5863 167.64 43.7176 165.997 43.362C164.353 43.0064 162.603 43.1929 161.13 43.8805L149.06 49.5085C148.311 49.8496 147.653 50.3091 147.128 50.8598C146.602 51.4104 146.218 52.0408 145.999 52.7137C145.781 53.3866 145.731 54.0882 145.854 54.7768C145.977 55.4654 146.27 56.127 146.716 56.7222L154.749 68.0093C154.96 68.3291 155.066 68.6875 155.056 69.0499C155.046 69.4123 154.922 69.7667 154.694 70.0789C154.466 70.3911 154.143 70.6508 153.756 70.8328C153.368 71.0149 152.929 71.1133 152.481 71.1186H140.95V70.2791C141.133 69.8132 141.081 69.3074 140.803 68.8729C140.526 68.4385 140.046 68.1111 139.47 67.9626C138.894 67.8142 138.269 67.8569 137.732 68.0814C137.195 68.3059 136.79 68.6938 136.606 69.1597L129.841 78.7366C129.167 79.682 128.812 80.7544 128.812 81.846C128.812 82.9376 129.167 84.01 129.841 84.9554L136.645 94.2835C136.892 94.6238 137.271 94.8891 137.722 95.0386C138.174 95.1882 138.674 95.2137 139.145 95.1113C139.616 95.009 140.033 94.7843 140.331 94.4719C140.63 94.1595 140.793 93.7765 140.796 93.3818V92.449H156.44C157.456 92.612 158.51 92.484 159.422 92.0868C160.334 91.6897 161.046 91.0482 161.437 90.2724Z" fill="black"/>
<path d="M43.4344 62.9414C42.546 62.9602 41.6896 63.2134 40.9956 63.6625C40.3017 64.1116 39.8083 64.7319 39.5906 65.4289L37.6303 69.1602C34.6971 75.0995 32.6456 81.2994 31.5187 87.6299L29.4047 99.6631C26.4769 116.072 30.7765 132.791 41.5509 146.895L59.8856 170.868C60.8751 172.166 61.4402 173.646 61.5276 175.169C61.615 176.692 61.2219 178.208 60.3853 179.574L58.7325 182.279C58.4142 182.808 58.2668 183.394 58.3043 183.982C58.3417 184.57 58.5627 185.14 58.9466 185.64C59.3305 186.14 59.8647 186.553 60.4994 186.841C61.1342 187.129 61.8487 187.282 62.5762 187.285H92.9034C97.4527 187.278 101.844 185.934 105.259 183.503C108.675 181.072 110.881 177.72 111.469 174.07L114.813 152.523C116.31 142.799 114.224 132.934 108.817 124.165C104.23 116.696 97.1624 110.408 88.4062 106.006L64.8441 94.2528C63.8958 93.7826 62.8045 93.535 61.6922 93.5377C60.1019 93.5377 58.5767 94.0487 57.4522 94.9584C56.3277 95.8681 55.6959 97.1018 55.6959 98.3883C55.6955 103.576 58.239 108.552 62.7684 112.225L77.144 123.854C78.1635 124.679 78.7362 125.797 78.7362 126.963C78.7362 128.13 78.1635 129.248 77.144 130.073C76.1246 130.897 74.742 131.361 73.3003 131.361C71.8586 131.361 70.476 130.897 69.4565 130.073L56.9259 119.936C51.1662 115.271 47.7434 109.046 47.3165 102.462L46.6631 92.5116C46.0974 83.8319 46.3802 75.1297 47.5087 66.4861C47.5511 66.0328 47.4772 65.5773 47.2915 65.1483C47.1058 64.7192 46.8124 64.3259 46.4298 63.993C46.0471 63.6601 45.5835 63.3948 45.068 63.2138C44.5525 63.0329 43.9963 62.9401 43.4344 62.9414Z" fill="black"/>
<path d="M204.488 146.895C215.235 132.817 219.534 116.135 216.634 99.7565L214.52 87.8165C213.399 81.4213 211.334 75.1579 208.37 69.1602L206.487 65.3668C206.225 64.5678 205.601 63.8776 204.739 63.4331C203.878 62.9885 202.841 62.8222 201.835 62.967C200.829 63.1117 199.927 63.5571 199.307 64.2147C198.688 64.8723 198.397 65.6941 198.492 66.5173C199.62 75.1609 199.903 83.8631 199.337 92.5427L198.684 102.493C198.257 109.077 194.834 115.302 189.074 119.967L176.544 130.104C176.039 130.512 175.44 130.836 174.78 131.057C174.121 131.278 173.414 131.392 172.7 131.392C171.986 131.392 171.279 131.278 170.62 131.057C169.96 130.836 169.361 130.512 168.856 130.104C168.351 129.696 167.951 129.211 167.678 128.677C167.405 128.144 167.264 127.572 167.264 126.995C167.264 126.417 167.405 125.845 167.678 125.312C167.951 124.778 168.351 124.294 168.856 123.885L183.232 112.256C187.761 108.583 190.305 103.607 190.304 98.4194C190.315 97.1541 189.714 95.9354 188.63 95.0234C187.546 94.1114 186.064 93.5783 184.5 93.5377C183.388 93.535 182.297 93.7826 181.348 94.2529L157.594 106.006C148.801 110.387 141.692 116.664 137.068 124.134C131.661 132.903 129.575 142.768 131.072 152.491L134.532 174.071C135.11 177.726 137.313 181.085 140.73 183.523C144.146 185.96 148.542 187.309 153.097 187.316H183.424C184.152 187.313 184.866 187.16 185.501 186.872C186.136 186.585 186.67 186.171 187.054 185.672C187.438 185.172 187.659 184.601 187.696 184.013C187.733 183.425 187.586 182.84 187.268 182.31L185.615 179.605C184.778 178.239 184.385 176.723 184.473 175.2C184.56 173.677 185.125 172.197 186.115 170.899L204.488 146.895Z" fill="black"/>
</svg>
